:FULLY-SPECIFIED
:FORCE-ALL-JOINTS-BE-3DOF
:DEGREES
3058
root -1.64903 15.9803 -34.0554 7.62808 3.15072 0.92662
lfemur -35.1496 3.99455 -2.84322
ltibia 62.1064 -0 0
lfoot -8.02635 1.87261 0.506285
ltoes -36.3305 0 0
rfemur -36.5301 -6.77174 25.527
rtibia 60.9369 -0 0
rfoot -19.4112 -28.487 0.0206566
rtoes -6.94943 0 0
lowerback 12.8053 0.172276 -1.46583
upperback -1.16877 0.135029 1.58847
thorax -8.46996 0.175698 2.52075
lowerneck 3.96099 -9.54629 -12.0228
upperneck -3.37922 -13.1055 9.65293
head -0.194578 -6.60921 5.0514
lclavicle -3.42904e-14 -1.03368e-14 0
lhumerus 17.8216 -45.3245 85.7801
lradius 67.3768 -0 0
lwrist -6.48442 0 0
lhand -28.1207 31.6418 0.00712687
lfingers 7.12502 -0 0
lthumb -1.50253 61.6188 0.00677262
rclavicle -3.42904e-14 -1.03368e-14 0
rhumerus 27.5228 50.3386 -46.4591
rradius 104.611 -0 0
rwrist -45.4737 0 0
rhand -3.80574 -25.2515 -0.122375
rfingers 7.12502 -0 0
rthumb 21.9468 -54.1415 -0.135548
3059
root -1.61281 15.9878 -34.0422 7.53278 3.53033 0.918791
lfemur -34.9234 3.90156 -2.95541
ltibia 61.3717 -0 0
lfoot -8.55531 1.4881 0.494383
ltoes -36.8981 0 0
rfemur -36.2652 -6.55272 25.2786
rtibia 60.9181 -0 0
rfoot -19.3697 -28.292 0.0194546
rtoes -7.46959 0 0
lowerback 12.7591 0.204376 -1.39691
upperback -1.17624 0.187822 1.57339
thorax -8.45278 0.197394 2.45354
lowerneck 3.86105 -9.38597 -11.9095
upperneck -3.24985 -12.8818 9.52639
head -0.178429 -6.49497 5.00869
lclavicle -3.42904e-14 -1.03368e-14 0
lhumerus 16.4707 -45.5403 86.3603
lradius 67.7103 -0 0
lwrist -6.20946 0 0
lhand -28.1002 31.834 0.00688213
lfingers 7.12502 -0 0
lthumb -1.48276 61.8112 0.00653268
rclavicle -3.42904e-14 -1.03368e-14 0
rhumerus 25.2695 50.9165 -47.9236
rradius 105.323 -0 0
rwrist -45.1916 0 0
rhand -3.80564 -25.1205 -0.125466
rfingers 7.12502 -0 0
rthumb 21.947 -54.0121 -0.138664
3060
root -1.5766 15.9952 -34.0291 7.43889 3.89508 0.90879
lfemur -34.6993 3.80909 -3.07009
ltibia 60.6324 -0 0
lfoot -9.08084 1.11083 0.47887
ltoes -37.4592 0 0
rfemur -35.9995 -6.3329 25.0329
rtibia 60.8957 -0 0
rfoot -19.3282 -28.0972 0.0182014
rtoes -7.98758 0 0
lowerback 12.712 0.237044 -1.32788
upperback -1.18448 0.241341 1.55846
thorax -8.4359 0.219468 2.38626
lowerneck 3.75956 -9.22459 -11.7955
upperneck -3.11975 -12.6564 9.39972
head -0.161734 -6.38002 4.96546
lclavicle -3.42904e-14 -1.03368e-14 0
lhumerus 15.1076 -45.733 86.9501
lradius 68.0427 -0 0
lwrist -5.93562 0 0
lhand -28.0812 32.0245 0.00655166
lfingers 7.12502 -0 0
lthumb -1.4644 62.0019 0.00621066
rclavicle -3.42904e-14 -1.03368e-14 0
rhumerus 22.9595 51.4426 -49.4498
rradius 106.017 -0 0
rwrist -44.9023 0 0
rhand -3.81691 -24.9946 -0.127759
rfingers 7.12502 -0 0
rthumb 21.9361 -53.8884 -0.140902
3061
root -1.54038 16.0027 -34.0159 7.3466 4.24578 0.896741
lfemur -34.4769 3.71719 -3.18667
ltibia 59.8916 -0 0
lfoot -9.60128 0.742068 0.459936
ltoes -38.0119 0 0
rfemur -35.7338 -6.11321 24.7903
rtibia 60.8691 -0 0
rfoot -19.2867 -27.9032 0.0169096
rtoes -8.50159 0 0
lowerback 12.664 0.270082 -1.25904
upperback -1.19349 0.295285 1.54377
thorax -8.4193 0.241792 2.31928
lowerneck 3.65677 -9.06285 -11.6812
upperneck -2.98925 -12.4304 9.27342
head -0.144468 -6.26485 4.92187
lclavicle -3.42904e-14 -1.03368e-14 0
lhumerus 13.7367 -45.9028 87.547
lradius 68.3723 -0 0
lwrist -5.66405 0 0
lhand -28.0639 32.2127 0.00614375
lfingers 7.12502 -0 0
lthumb -1.44766 62.1903 0.00581463
rclavicle -3.42904e-14 -1.03368e-14 0
rhumerus 20.603 51.9136 -51.029
rradius 106.691 -0 0
rwrist -44.6054 0 0
rhand -3.84011 -24.8745 -0.12917
rfingers 7.12502 -0 0
rthumb 21.9138 -53.771 -0.142173
3062
root -1.50417 16.0101 -34.0028 7.25614 4.58321 0.882762
lfemur -34.2558 3.62589 -3.30457
ltibia 59.1521 -0 0
lfoot -10.1149 0.383081 0.437815
ltoes -38.5546 0 0
rfemur -35.4685 -5.8946 24.5514
rtibia 60.8375 -0 0
rfoot -19.2447 -27.7105 0.0155911
rtoes -9.00979 0 0
lowerback 12.6149 0.303294 -1.19066
upperback -1.20329 0.349355 1.52944
thorax -8.40294 0.264237 2.25292
lowerneck 3.55296 -8.90145 -11.5672
upperneck -2.85863 -12.2048 9.14797
head -0.126603 -6.14997 4.87809
lclavicle -3.42904e-14 -1.03368e-14 0
lhumerus 12.3624 -46.0495 88.1483
lradius 68.6976 -0 0
lwrist -5.39594 0 0
lhand -28.0485 32.3978 0.00566852
lfingers 7.12502 -0 0
lthumb -1.4328 62.3755 0.00535447
rclavicle -3.42904e-14 -1.03368e-14 0
rhumerus 18.2116 52.3268 -52.6513
rradius 107.341 -0 0
rwrist -44.3003 0 0
rhand -3.87576 -24.7608 -0.129614
rfingers 7.12502 -0 0
rthumb 21.8795 -53.6605 -0.14239
3063
root -1.46795 16.0176 -33.9897 7.16769 4.90819 0.866974
lfemur -34.0358 3.53524 -3.42322
ltibia 58.4167 -0 0
lfoot -10.6202 0.0351346 0.412779
ltoes -39.0853 0 0
rfemur -35.2044 -5.67802 24.3165
rtibia 60.8003 -0 0
rfoot -19.2021 -27.5196 0.0142573
rtoes -9.51037 0 0
lowerback 12.5648 0.336481 -1.12303
upperback -1.21389 0.403249 1.51556
thorax -8.3868 0.286672 2.18754
lowerneck 3.44838 -8.74109 -11.4539
upperneck -2.72821 -11.9805 9.02385
head -0.10811 -6.03586 4.8343
lclavicle -3.42904e-14 -1.03368e-14 0
lhumerus 10.989 -46.1735 88.7515
lradius 69.0167 -0 0
lwrist -5.13246 0 0
lhand -28.0353 32.5792 0.00513776
lfingers 7.12502 -0 0
lthumb -1.42004 62.557 0.00484166
rclavicle -3.42904e-14 -1.03368e-14 0
rhumerus 15.798 52.6806 -54.3055
rradius 107.962 -0 0
rwrist -43.9865 0 0
rhand -3.92442 -24.654 -0.129009
rfingers 7.12502 -0 0
rthumb 21.8327 -53.5575 -0.141471
3064
root -1.43173 16.0251 -33.9765 7.08148 5.2215 0.849496
lfemur -33.8167 3.44524 -3.54205
ltibia 57.6883 -0 0
lfoot -11.1153 -0.300513 0.385139
ltoes -39.6022 0 0
rfemur -34.942 -5.46444 24.086
rtibia 60.7567 -0 0
rfoot -19.1587 -27.3312 0.0129186
rtoes -10.0015 0 0
lowerback 12.5136 0.369445 -1.05643
upperback -1.22531 0.456668 1.50223
thorax -8.37083 0.30897 2.12347
lowerneck 3.34327 -8.58248 -11.3418
upperneck -2.59826 -11.7585 8.90154
head -0.0889593 -5.92301 4.79067
lclavicle -3.42904e-14 -1.03368e-14 0
lhumerus 9.6212 -46.2751 89.354
lradius 69.3281 -0 0
lwrist -4.87477 0 0
lhand -28.0245 32.7561 0.00456476
lfingers 7.12502 -0 0
lthumb -1.40962 62.734 0.00428912
rclavicle -3.42904e-14 -1.03368e-14 0
rhumerus 13.3759 52.9737 -55.9796
rradius 108.553 -0 0
rwrist -43.6636 0 0
rhand -3.98661 -24.5547 -0.127279
rfingers 7.12502 -0 0
rthumb 21.7728 -53.4626 -0.139336
3065
root -1.39552 16.0325 -33.9634 6.99772 5.52394 0.830443
lfemur -33.5981 3.35594 -3.66047
ltibia 56.9697 -0 0
lfoot -11.5987 -0.622613 0.35524
ltoes -40.1035 0 0
rfemur -34.6818 -5.25481 23.8604
rtibia 60.706 -0 0
rfoot -19.1143 -27.1459 0.0115853
rtoes -10.4814 0 0
lowerback 12.4611 0.401987 -0.991146
upperback -1.23756 0.509312 1.48955
thorax -8.35501 0.331001 2.06106
lowerneck 3.23789 -8.42631 -11.2313
upperneck -2.46906 -11.5398 8.78149
head -0.0691194 -5.81191 4.74736
lclavicle -3.42904e-14 -1.03368e-14 0
lhumerus 8.26331 -46.3547 89.953
lradius 69.63 -0 0
lwrist -4.62405 0 0
lhand -28.0164 32.9279 0.00396403
lfingers 7.12502 -0 0
lthumb -1.40177 62.9058 0.00371096
rclavicle -3.42904e-14 -1.03368e-14 0
rhumerus 10.9597 53.2058 -57.6607
rradius 109.109 -0 0
rwrist -43.331 0 0
rhand -4.06288 -24.4634 -0.124349
rfingers 7.12502 -0 0
rthumb 21.6993 -53.3763 -0.135911
3066
root -1.3593 16.04 -33.9503 6.91662 5.81632 0.809932
lfemur -33.3797 3.26736 -3.77791
ltibia 56.2639 -0 0
lfoot -12.0687 -0.92992 0.32346
ltoes -40.5874 0 0
rfemur -34.4245 -5.05013 23.64
rtibia 60.6474 -0 0
rfoot -19.0685 -26.9641 0.0102668
rtoes -10.9481 0 0
lowerback 12.4073 0.433909 -0.927453
upperback -1.25066 0.560879 1.47762
thorax -8.33931 0.352635 2.00065
lowerneck 3.13247 -8.2733 -11.1229
upperneck -2.34088 -11.3253 8.66417
head -0.0485572 -5.70306 4.70454
lclavicle -3.42904e-14 -1.03368e-14 0
lhumerus 6.91983 -46.4129 90.5462
lradius 69.9207 -0 0
lwrist -4.38147 0 0
lhand -28.0112 33.0937 0.00335109
lfingers 7.12502 -0 0
lthumb -1.39674 63.0717 0.00312224
rclavicle -3.42904e-14 -1.03368e-14 0
rhumerus 8.56425 53.3776 -59.3357
rradius 109.626 -0 0
rwrist -42.9883 0 0
rhand -4.15377 -24.3809 -0.120153
rfingers 7.12502 -0 0
rthumb 21.6118 -53.2992 -0.131126
3067
root -1.32308 16.0475 -33.9371 6.8384 6.09943 0.788078
lfemur -33.1612 3.17952 -3.8938
ltibia 55.5736 -0 0
lfoot -12.5236 -1.2212 0.290205
ltoes -41.052 0 0
rfemur -34.1706 -4.85137 23.4252
rtibia 60.5804 -0 0
rfoot -19.0212 -26.7865 0.00897239
rtoes -11.4 0 0
lowerback 12.352 0.465011 -0.865638
upperback -1.26461 0.611071 1.46655
thorax -8.32368 0.373743 1.94259
lowerneck 3.02724 -8.12415 -11.0171
upperneck -2.21398 -11.1162 8.55001
head -0.0272382 -5.59695 4.66238
lclavicle -3.42904e-14 -1.03368e-14 0
lhumerus 5.59516 -46.4504 91.1308
lradius 70.1987 -0 0
lwrist -4.1482 0 0
lhand -28.0091 33.253 0.00274214
lfingers 7.12502 -0 0
lthumb -1.39475 63.2309 0.00253872
rclavicle -3.42904e-14 -1.03368e-14 0
rhumerus 6.2044 53.4903 -60.9913
rradius 110.102 -0 0
rwrist -42.635 0 0
rhand -4.25981 -24.3076 -0.114628
rfingers 7.12502 -0 0
rthumb 21.5096 -53.232 -0.12492
3068
root -1.28687 16.0549 -33.924 6.76328 6.37408 0.764992
lfemur -32.9425 3.09243 -4.00757
ltibia 54.9018 -0 0
lfoot -12.9618 -1.49522 0.255905
ltoes -41.4955 0 0
rfemur -33.9207 -4.65953 23.2165
rtibia 60.5041 -0 0
rfoot -18.9721 -26.6136 0.00771119
rtoes -11.8352 0 0
lowerback 12.2954 0.495092 -0.80598
upperback -1.27943 0.659587 1.45642
thorax -8.3081 0.394196 1.88721
lowerneck 2.92244 -7.97959 -10.9142
upperneck -2.08861 -10.9132 8.43947
head -0.00512688 -5.49407 4.62104
lclavicle -3.42904e-14 -1.03368e-14 0
lhumerus 4.29367 -46.4679 91.7044
lradius 70.4621 -0 0
lwrist -3.92541 0 0
lhand -28.0104 33.405 0.00215377
lfingers 7.12502 -0 0
lthumb -1.39604 63.3828 0.00197647
rclavicle -3.42904e-14 -1.03368e-14 0
rhumerus 3.89494 53.546 -62.6143
rradius 110.532 -0 0
rwrist -42.2704 0 0
rhand -4.38156 -24.2442 -0.107722
rfingers 7.12502 -0 0
rthumb 21.3923 -53.1753 -0.117239
3069
root -1.25065 16.0624 -33.9109 6.69146 6.64107 0.740787
lfemur -32.7231 3.0061 -4.11865
ltibia 54.2512 -0 0
lfoot -13.3817 -1.75076 0.22101
ltoes -41.916 0 0
rfemur -33.6753 -4.47561 23.0141
rtibia 60.4178 -0 0
rfoot -18.921 -26.446 0.00649223
rtoes -12.2518 0 0
lowerback 12.2371 0.523953 -0.748762
upperback -1.29512 0.706128 1.44734
thorax -8.29253 0.413863 1.83486
lowerneck 2.81827 -7.84033 -10.8148
upperneck -1.96501 -10.7176 8.33297
head 0.0178137 -5.39491 4.58069
lclavicle -3.42904e-14 -1.03368e-14 0
lhumerus 3.01961 -46.4664 92.2646
lradius 70.7094 -0 0
lwrist -3.71428 0 0
lhand -28.0154 33.549 0.00160261
lfingers 7.12502 -0 0
lthumb -1.40084 63.5267 0.00145163
rclavicle -3.42904e-14 -1.03368e-14 0
rhumerus 1.65017 53.5477 -64.1921
rradius 110.913 -0 0
rwrist -41.8942 0 0
rhand -4.51954 -24.1912 -0.0993898
rfingers 7.12502 -0 0
rthumb 21.2593 -53.1295 -0.108039
